<?xml version="1.0" encoding="utf-8"?>
<!-- Generator: Adobe Illustrator 22.0.0, SVG Export Plug-In . SVG Version: 6.00 Build 0)  -->
<svg version="1.1" id="Layer_1" xmlns="http://www.w3.org/2000/svg" xmlns:xlink="http://www.w3.org/1999/xlink" x="0px" y="0px"
	 viewBox="0 0 600 800" style="enable-background:new 0 0 600 800;" xml:space="preserve">
<style type="text/css">
	.st0{fill-rule:evenodd;clip-rule:evenodd;fill:#262122;}
</style>
<path class="st0" d="M384.1,415.9h6.1c18.4,19,43.2,29.1,51.4,31.5c9.2,2.8,11.8,6.1,21.7,7.5c14.2,2.1,14.1,0.4,22.5,6.9
	c-9.6-4.9-10.6-4.2-22.6-5c6.6,3,12,5.8,22.4,7.4c22.8,3.3,22.6,0.6,36.2,11.1c-16.6-8.4-17.3-6.6-41-8.3c2.3,3.9,5,7.6,8.2,11
	c9.7,3.4,20.7,5.2,31.9,5.1c-8,2.9-3.5-1.2-6.7,4.1c7,3.1,13.4,9,17.8,15.8c14.4,4.4,30.2,6.7,46.3,6.6c-12.8,4.7-5.6-2-10.8,6.5
	c13.5,6,25.6,18.4,32.5,32.2c-0.7-0.5-1.7-1.8-2-1.4c-0.3,0.4-1.5-1.1-2-1.4c-2.8-2.3-2-1.4-5-4.4c-25.1-24.9-28.4-22.3-71.5-36.1
	c2.5,15,1.3,23.8,9.5,36.9c-20.3-16.2-2-29.2-34.6-52.1c-3.9-2.8-7.1-5.4-9.8-7.8c1.2,8.4,0.8,13.7,5.7,21.3
	c-12.6-10.1-1.2-18.2-21.5-32.4c-4.3-3.1-7.2-5.8-9.7-8.3c-6.4-2.6-15.1-4.7-27.7-6.4c0.7,1,1.5,1.9,2.5,2.8l11.3,7.7
	c-0.5-0.2-6-2.5-13.9-5.7c1.7,3.6,3.6,6.8,7,9.8l18.2,12.3c-1.1-0.4-20.2-8.4-43.4-17.9c2.4,2,5.1,4,8.1,5.6l5.7,3.2
	c-14.9-2.7-18.7-8.1-25.7-13.7c-2.3-1-4.7-1.9-7.1-2.9c-0.5,1.7,0.6,2.9-0.6,5.6c-0.8-3.2-1.5-5.4-2.6-6.9
	c-4.5-1.8-8.9-3.6-13.3-5.3l-1.7-0.4c0.2,2.5,0.7,6.2,1.4,10l3.5,1.7c10.1,5,17.2,12.8,25.8,19.7c5.3,0.9,10.5,1.9,15,3.5
	c13.3,4.9,11.2,7.4,19.6,10.9l-8.3,0c-0.2,0-0.8-0.1-1.1,0.1c11.3,13.9,23.8,10,29.6,24.7l-4.3-2.7c-7.8-5.8-12.8-10.5-24.3-14
	c0.2,9.8,6.2,11.4,7.2,18.7c-3.7-6-8.3-7.3-9.7-14.9c-1-5.4-2.5-10.1-5.3-13.9c-13-2.6-20.5-6.6-26.6-11.3
	c-16-1.7-12.5-1.9-24.1-5.6c-0.4,9.9,11.2,18.9,20.8,22c-2.9,1.7-4,2.3-3.7,5.4c0.1,0.7,0.4,1.4,0.8,2.2c9.2,1.5,18.6,3.1,26.5,6
	c21.4,7.8,18,11.9,31.5,17.5l-13.3,0c-0.3,0-1.3-0.1-1.8,0.1c18.2,22.4,38.3,16,47.5,39.6l-7-4.3c-12.5-9.4-20.6-16.9-39.1-22.6
	c0.3,15.7,9.9,18.3,11.6,30.1c-6-9.6-13.4-11.7-15.6-23.9c-3.6-19.5-11.2-32.7-37.4-38.3c0.4,0.7,0.9,1.3,1.2,1.9
	c-1.4-0.7-2.6-1.5-3.5-2.4c-3.1-0.6-6.5-1.1-10.1-1.5c-25-2.7-22.1-3-35.6-7.7c-0.7,1.2-1.4,2.4-2.2,3.6c9,5,22.5,6,28.9,13.4
	c10.6,12.4,18.6,7.6,26.3,15.6l-20.5-6.9c1.4,7.7,3.5,17.1,8.2,22c6.7,6.9,13.1,5.6,17.1,16.6c-0.5-0.3-1.2-1.2-1.4-1l-25.7-22.7
	c-3.8,5.8-1.1,8.2-1.2,13.5c0.4,0.7,0.8,1.3,1.2,2c-0.4-0.2-0.9-0.4-1.3-0.7c0,0.4-0.1,0.9-0.2,1.3c0-0.5,0-1,0-1.4
	c-11.7-6.7-9.5-17.1-18.3-26.2c-6.7-6.9-14-9.8-17.8-17.2c-4.5,17.3,2.9,27.6,11.6,42.5c4.3,7.3,4.8,14.7,14.9,18.1
	c8.8,3,7.5,0.7,11.9,6.9c2.1,3,4.8,7.9,6.4,11.9l-1.4-1.4l-7.3-2.4l-1.7,1.9c0-1,0.1-1.8,0.2-2.5l-13.1-4.4
	c-0.8,6.2-3.2,11.2-6.1,16.1c2.1,6.1,4.8,11.7,8.5,15.6c10.7,11.2,21.1,9,27.5,26.7c-0.8-0.5-1.9-2-2.3-1.5l-38.1-33.7
	c-2.2,3.5-4.3,7.1-5.9,11.2c0.6,3.3,1.4,6.8,0.5,12c0.3-3-0.5-5.8-1.5-8.7c-1.8,7.5,0.7,15,0.2,20.3c-0.6,7.1-2.4,12-5.3,16.5
	c4.9,1.3,5.3,1.5,10.3,8.5c3.3,4.8,7.6,12.7,10.2,19.1L349,676l-6.4,7.3c0.4-8.8,2.2-9.4-1-18.1l-6.6-1.6l-0.2,0.3l0.1-0.3l-12.8-3
	c2.1,29.5-17.6,43.7-27,67.6c-5.3,13.5-0.1,27.5-1,37c-1.4,15.8-6.2,24.7-15,34.9c14.2-31.2,0.9-44.1,8.7-71.6l-9.2-2
	c-0.4-0.1-1.6-0.4-2.3-0.7c16.2-4,24.1-20.3,31.1-34.8c9.4-19.5,8.5-30.7-2.5-49c-17,11-20.2,21.3-24.6,40.4L270.2,661
	c15.3-4.4,11.1-6.6,21.1-14.9c18.6-15.4,2.3-21.1-8.8-41.5c-4.6-8.5-6.7-17.3-11.6-24.5c-29.8,20.8-14.6,29.7-19,53.8
	c-9.9-20.3-0.7-6.9-9.4-9.2c1.7-7.3,5.9-16,0.9-22.7l-5.8-4.4c28.9-6.4,31.7-31.1,40-47.9c9.7-19.7,25.6-32.1,22.6-58.7
	c-0.7,5.6-8.9,12-15.3,15.4c-3.5,1.9-5.3,2.5-7.6,3.6c-1.1,1.9-2.1,4.1-3.2,6.6c-2.9-2.8-5,1.6-2.1-3.6l-13,8.8
	c5.5-10.7,10.9-13.1,16.7-15.7c0.4-0.7,0.8-1.5,1.2-2.3L251,507c5.7-2.9,17.2-2.5,23.7-5.2c6-2.5,12.2-7.4,17.5-10.4l1.1-0.6
	c0.4-0.6,0.7-1.1,1.1-1.7c5.9-9.9,7.1-20.8,5.8-29.6c-0.6,0.7-1.1,1.3-1.6,1.9c-8.1,9.8-13.8,11.3-18.5,12c0,4.1,0.2,8.6,0.5,13.6
	l-6.6-12.2c-1.1,0.5-2.1,1.2-3.1,2.2c-0.3-0.3-0.7-1.2-0.9-1l-3.9-2.5c-7.7,12.8-6.8,24.2-22.6,38.4c-23.9,21.6-9.4,25.7-12,50.1
	c-8.6-11-5.1-29.1-3.5-42.4c-10.8,5.8-18.7,9.7-25,14.2c2.8,4.7,6.1,9.1,8.7,14.4c5.1,10.5,6.9,25.8,24.9,29.8l-3.6,2.7
	c-3.1,4.1-0.5,9.6,0.6,14.1c-5.4,1.4,0.3-6.9-5.8,5.7c-2.7-14.9,6.7-20.5-11.8-33.4c-3.1,4.4-4.4,9.9-7.2,15.2
	c-6.9,12.7-17,16.2-5.5,25.8c6.2,5.2,3.6,6.6,13.1,9.3l-6.3,13.3c-2.8-11.9-4.8-18.3-15.3-25.1c-6.8,11.4-7.4,18.4-1.5,30.5
	c4.3,9,9.3,19.1,19.3,21.6c-0.5,0.2-1.2,0.4-1.5,0.4l-5.7,1.2c4.8,17.1-3.4,25.1,5.4,44.6c-5.5-6.3-8.5-11.9-9.3-21.7
	c-0.5-5.9,2.7-14.6-0.6-23c-5.8-14.9-18.1-23.7-16.8-42.1l-12.1,2.9c-2,5.4-0.9,5.7-0.6,11.2l-4-4.5l-6.4,6.4
	c1.6-4,4.3-8.9,6.4-11.9c4.3-6.2,3.1-3.9,11.9-6.9c10.1-3.5,10.6-10.8,14.9-18.1c9.4-16,17.2-26.7,10.4-46.5
	c-7.2,0.5-13.6,2.2-18.9,4.7c-1.4,2.6-2.8,5.6-4.3,8.9c-3.5-3.3-6.2-0.2-5.4-2c-1.8,1.8-3.2,3.8-4.2,5.9c-4.6,9.5-1.8,8.6,0.1,16
	c1.6,6.1-2.7,10.4-2.2,15.2c-1.3-7.3,2.9-9.4-1.4-16.1l-25.7,22.7c-0.2-0.3-0.9,0.6-1.4,1c4-11,10.5-9.7,17.1-16.6
	c4.7-4.9,6.8-14.3,8.2-22l-20.5,6.9c7.7-8.1,15.8-3.3,26.4-15.6c2.1-2.4,4.9-4.2,8.2-5.6c1.4-2.6,3.2-6,5.3-10.3l-29.4,3.6
	c-1.3,2.6-3,5-6.7,6.8c1.2-2.2,3.2-4.5,4.2-6.5l-9.3,1.1c2.7-1.4,6.1-2.3,10-3l0-0.1c0.3-3.1-0.8-3.8-3.7-5.4
	c9.6-3.1,21.2-12.1,20.8-22c-11.8,3.8-7.9,3.9-25,5.7c-22.6,2.4-28.5,11.1-31,25c-1.4,7.6-6,8.9-9.7,14.9c1-7.3,7-8.9,7.2-18.7
	c-11.5,3.5-16.6,8.2-24.3,14l-4.3,2.7c5.7-14.7,18.2-10.7,29.6-24.7c-0.3-0.1-1-0.1-1.1-0.1l-8.3,0c8.4-3.5,6.3-6,19.6-10.9
	c15.4-5.6,39.2-3.5,42.5-15.8c1-3.6,2.2-10.2,2.8-15.2l-1.1-0.7c-2.5,1.2-5,2.2-7.2,2.9c0.4-0.3,1-1.2,1.2-0.9c0,0,1.7-1.2,4.3-2.9
	l-0.9-0.6c-0.4-0.1-1-0.3-1.8-0.5c-7.8,1.8-9.9,3-11.9,11.4c-1.6-3.4,0.6-4.4-1.4-7c-12,6.9-13.2,14.6-32,17.9l5.7-3.2
	c9.3-4.9,14.4-12.8,23.2-17.1c2.7-1.3,5.2-2.6,7.5-3.7c-3.7-0.6-7.2-1.2-8.7-1.3c-0.5-0.1-1-0.1-1.4-0.2
	c-20.9,8.4-43.5,17.9-44.5,18.2l11.3-7.7c2.9-2.6,4-5.3,5.5-8.6c-11.5,3.2-20.8,9.2-33.6,15l-0.1,0c-1.9,1.7-4,3.5-6.8,5.5
	c-20.3,14.3-8.9,22.4-21.5,32.4c5.1-8.1,4.4-13.6,5.9-22.9c-26.8,8.6-28.9,7-44.5,22.5c-1.9,1.9-1.4,1.3-3.1,2.7
	c-0.3,0.2-1,1.1-1.2,0.9c-0.2-0.3-0.8,0.6-1.3,0.9c4.3-8.6,11.8-16.3,20.2-20c-3.2-5.3,1.3-1.1-6.7-4.1c10.5,0.1,20.8-1.5,30.1-4.5
	c-0.8-1.7-2.6-4.3-7.7-4.8c-13.5-1.5-33,13.2-47.1,17.1c0.6-0.5,1.7-2,2-1.5c0,0,23.6-17.1,39.4-19.8c29.6-5.1,26.2-1.2,43.3-12
	c0.2-0.3,0.4-0.6,0.6-0.9c-14.8,1.1-15.2-0.1-25.5,5.2c8.5-6.5,8.3-4.9,22.5-6.9c0.8-0.1,1.6-0.3,2.4-0.4L51.5,491
	c18.8-2.3,19.7,0.6,34.2,0.7c3.6,0,6.7-0.3,9.6-0.9c2.4-1.1,5-2.3,8.6-3.3c2.6-0.8,6.8-2.3,11.9-4.6H130c5.7-0.5,10.9-0.4,15.8,0
	h13.1l-3,1.2c2.8,0.4,5.6,0.9,8.2,1.3c1.7-0.9,3.3-1.7,4.7-2.4H179c-0.3,0.6-0.6,1.7-0.9,3.4c0.8-0.4,1.5-0.7,2.3-1
	c-0.2-1.2-0.3-2-0.5-2.4h9.3c3.5-0.6,6.2-0.9,8.3-1.2c3.1-2.1,6.2-4.9,9.3-8.6l-13.5-1.5c8.1-1,10.8-0.4,14.7,0
	c2.8-3.5,5.7-7.8,8.7-12.9c-24.6,3.8-37.6,2.3-62,4.6c17-8.6,40.3-2.1,58.7-8.7c68.2-24.6,66.4-130.4,73.5-182.5
	c-1-0.4-2.3-0.7-3.8-1.2c-3.2-1-5.7-1.5-9.4-2.1c-7.3-1.2-14-1.4-21.4-2.4L211,260c-19.7-3.8-19.8-5.1-35.1-10.5l-0.9-0.7
	c-0.2-0.2-1.2-0.8-1.4-0.8c-0.3-0.2-1-0.5-1.5-0.7l-1.7-0.8l-4.8-3.3c-9-0.4-18.4,0.3-27-1.3c-5-0.9-15.6-4.3-18.6-6.3l-5.6-2.8
	c16,3.9,12.8,8.3,41.2,7.3c0.8,0,2.1-0.1,2.9-0.2l2.9-0.7c-4.7-6.6-17.3-19.7-20.1-28.8l2.6,2.1c0.6,0.7,1.3,1.6,2.1,2.5
	c1.5,1.8,2.5,3,3.9,4.7c2.6,3.2,5.4,6.3,8,9.3c17.8,20.3,42.1,25.2,75.1,27.7c-7.5-3-13.8-8.3-15.4-12.8c5.3,4.3,10.2,10.4,21.6,11
	c1.2,0.1,3.2,0,5.8-0.3c-1.1-3.1-1.7-4.6-1.7-9.8c0-9.7-7.5-17.6-17.8-23c-3.4,1.1-6.9,2.8-9.7,3.5c-2.5-0.7-3.7-0.8-3.3-2.6l8.5-3
	c-0.9-0.4-1.8-0.9-2.5-1.5l-2.2-1.2c-1.3-0.7-0.1,0.5-1.6-1c2.6,0.8,5.6,1.8,8.5,2.9l0.6-0.2c-2.5-1.6-12.7-5.9-19.7-10.2
	c-7.7-4.7-9-6.8-22.3-9.2c-16.4-3-21.7-3-35.9-11.3c-3.9-2.3-5.8-4.2-9.5-5.9c-21.5-0.5-30.5,13.8-63,9.5L63,188.7
	c-0.8-0.2-1.7-0.2-2.3-0.2l6.5,1c15.1,1.4,21.2,3.7,34.8-2c4.3-1.8,9.1-2.8,14-4.7c5.2-2.1,8.8-2.5,14.3-4.3c-2-2-5.2-3.2-8.5-4.8
	c-9.2-4.5-8.4-8.8-28.3-15.3c-26.4-8.7-31.3-2.4-56.8-2.5c6.9-2.2,33.5-5.6,43.4-4.9c8.6,0.6,28.1,8.3,35.3,10.9
	c0-1.1-0.1-3-0.2-5.4c-2.5-2.1-4.8-4.3-7.1-6.2l-1.2-2.7c2.2,1.1,4.7,3.3,8.1,6c-0.6-9.3-1.8-22.8-2.9-25.2
	c-4.4-9.6-15.3-13.9-26.6-18.9c-0.5-0.5-4-3.3-4.5-1.8l3,0.2c5.7,1.5,14.6,5.1,19.3,7.4c8.5,4.3,7.6,5.4,13.4,12.7
	c10.1-1.1,25.2-15.8,24.4-24.5c0.9,0.8,1.8-0.5,0,4.4c-6,17-7.6,13.5-22.3,24.1c0.9,5.1,2.6,7.8,2.6,13.6c0,5.4,0.5,9.7,2.3,13.6
	c5,2.7,11.5,5.1,19.9,6.3c8.9,1.2,45.9-0.7,58.9-0.2c-3.3-4.9-17.3-12.8-19.4-25.9c-9.5-1.9-22.2-6.8-27.6-13
	c-0.7-1.3-3.8-5.3-3.8-5.5c5.2,3.7,6,7.1,12.5,10c3.7,1.6,13.7,5.2,18.8,5.1c0.1-6.1,3.8-24.4,6.8-28.6c1,17.2-8.2,26.6,5.2,42.8
	c4.6,5.5,10.2,9.8,17.8,12.9c14.1,5.7,13.5,8.7,20.4,10.9c1.3-5.3,5.1-8.5,8.1-12.2c1.6-2,2.3-3.9,3.9-5.9c1-1.3,2.2-2.2,3.2-3.5
	c-5-3.3-9.8-5.5-13.3-8.9c-2.8-2.7-4.9-4.3-8.7-6.3c-4.6-2.4-11.3-5.6-16.8-6.8l-6.8-1.5c15.3-0.9,21.5,4.4,31.9,7.5
	c-0.4-24.7-20.4-21-33.9-28.1c27.8,1.9,36.3,11.2,41.3,29c0.9,3.3,4.5,6,9.3,9.3c2.7-9.7-6-15.8-9.1-23c9.7,8.5,13.5,16.5,11.8,24.9
	c2.1,1.4,4.3,3,6.5,4.8c5.2,4.2,14.3,9.6,25.6,11.3l0.9-20.4l-1.2-1.1c-0.4-0.5,0,0.6-0.6-1c-0.5-1.3-0.3-0.2,0-0.9
	c0.6,0.6,1.2,1.2,1.8,1.8l0.1-2.6l1.9-9.9l2.4-6c0.9-5.2,0.2-9.8-1.4-13.9c-18.6-6.5,0.9-8.5-37.4-10.5c-21.3-1.1-25.6-1.1-40.6-8
	c-1-0.9-1.1-0.9-1.4-2.4c12.2,5.1,13.6,6.5,32.4,7c-2.3-2.9-5.5-3.1-8.7-10.2c-1.4-3.1-2.1-6.2-2.4-9.5c-5.9,3.6-15.2,6.2-25.6,5.9
	c-5.3-1.3-8.7-3.1-15.6-2.5c-6.3-0.9-17.6-5.6-22.5-7.7l0.5-0.5c11.1,2.1,17.4,6.4,33,7c14.2,0.6,24.8-3.9,28.5-10.1
	c-5.5-2.2-11-4.3-16.5-6.8l-28.9-16.3c-4.1-2.1-10.5-5.8-14.7-7.4c-1.3-1.3,0-0.3-2-1.5c-1.1-0.7-1.2-0.6-2.4-1.2
	c-2.5-1.2-2.9-0.8-2.8-2.1c10.9,1.8,37.6,16.2,42,17.2c1.3-5.2,3.8-12.7,1.1-18.3c-2.1-4.6-7.8-9.4-9.2-14c4,3,11.4,12.2,13.2,16.7
	c1.6,3.9,1.1,8.6,0.8,12.7c-0.6,6.7-2.8,5.9,4.2,9.3c12.9,6.2,25.2,8.4,37.8,13.5c4.4,1.8,8.2,4.1,12.7,5.5c0-1.8,0.1-3.4,0.2-4.7
	c-0.3-0.4-0.8-1.1-0.8-1.2c-0.4-1.3-0.6-0.4,0.2-1.2c0.3,0.2,0.5,0.5,0.8,0.7c0.7-9,1.6-9.7-8.6-17.8c11.1,2.2,13.1,10.2,12.5,19.8
	c0,0.6-0.1,1.2-0.1,1.7c2.7,2.9,4.3,5.4,5.2,8.5l0.6,0.4c3.2,1.9,6.9,6.1,10.4,7.1c6.9-2.7,9.5-9.5,13.3-14.7
	c3.6-4.9,0.3-4.3,0.4-9.8c0.1-3.8,2.3-6.9,2.8-10.1C287,50,264.1,41.9,257.2,31c-1.6-2.6-5.2-12.1-4.5-14.7l0.9,2.9l4.4,8.6
	c6,10.4,34.8,21.2,47.4,23c1.9-3.4,3.7-8.4,5.8-11.8c2.7-4.4,4.8-5.2,5.3-11.3c0.9-10.9-5.6-15.4-10.9-22.4L301,0
	c0.6,1.8,2.7,2.3,4.5,3.8c3.3,2.7,0.8,2.4,5.1,4.2c9.3,7.8,12,17.5,8.4,30.5c-3.6,12.7-12.3,14.9-9.7,30.2l0.3-0.1
	c1.4-2.4,3.3-4.7,5.8-6.8c3.6-1.5,1.6-1.3,4.3-3.5c1.5-1.2,3.3-1.6,3.8-3.2l-3.8,4.4c-2.2,2.9-4.6,5.3-6.5,8.1
	c13.8-3.8,22.3-9.1,33-14.7c4-2.1,7.4-3.3,11.4-5.5c0.3-16.4,2.1-20.4,13.4-30.6c1,1,0.7-0.1,0.2,1.5c0,0.1-1,1.4-1.3,1.7
	c-3,4.5-6.4,6.2-7,13c-0.5,5.1-0.4,12.4,3.1,16.1c22.9,2.5,34.3-4.5,40.2-17c1-2.1,1.7-3.8,2.3-6c0.6-2.5,0.4-4.3,2.2-6.4
	c0.2,6.2-0.4,12-2.9,17.6c-3.8,8.4-7.6,8.7-10.4,12.2c22.4-0.6,24.1-2.2,38.7-8.3c-0.4,1.7-0.6,1.7-1.7,2.8
	c-17.9,8.3-23,8.2-48.5,9.5c-46,2.4-22.2,4.7-45.1,12.6c-7.2,2.5-13.4,5.4-19.6,8.3c-4.3,2.1-7.6,4.3-10.2,6.6
	c0.7,2.7,2.2,3.8,4,6.6c1.8,2.8,3.3,7,4.8,9.9c10.6-1.5,34.7-10.6,39.7-19.2l3.6-7.2l0.8-2.4c0.6,2.2-2.4,10.1-3.8,12.3
	c-5.8,9.1-24.9,15.9-37.7,20.2c0.4,2.6,2.2,5.3,2.3,8.4c0.1,4.6-2.6,4.1,0.4,8.2c0.3,0.5,0.7,0.9,1,1.4c2.3-0.9,4.2-1.8,5.2-2.4
	c6.3-3.7,10.4-9.4,15.8-14.4c0.4,0.9,0.6-0.4,0,1.1c-0.7,1.9-0.2,0.5-0.7,1.2l-18.6,17.2c2.1,3.3,4.4,6.6,8.4,8.1
	c2.9-0.9,6.1-4.3,8.7-5.9c4.2-2.6,5.2-3.3,4.8-8.9c-0.5-8.1,1.2-14.7,10.5-16.6c-10.3,8.1-7.1,7.4-7,20.3c3.8-1.1,7-3.1,10.6-4.6
	c6.7-2.7,13.4-4.5,20.1-6.7c-0.4-8.8,4.3-17.2,14.5-26.2c-3.4,8-12.7,14.8-11.4,25.1c2.8-1,5.6-2.1,8.4-3.5c5.8-2.8,4-2.2,3.5-7.8
	c-0.3-3.4-0.7-7.3,0.6-10.6c1.5-3.8,7.7-11.4,11.1-13.9c-1.2,3.9-5.9,7.9-7.7,11.7c-2.2,4.7-0.1,11,1,15.3
	c3.7-0.9,26-12.9,35.1-14.4c0.1,1.1-0.3,0.7-2.4,1.7c-1,0.5-1.1,0.4-2,1c-1.7,1-0.6,0.1-1.7,1.3c-3.6,1.3-8.9,4.4-12.3,6.2
	l-24.2,13.6c-2.8,1.3-5.6,2.4-8.3,3.5c0.4,0.9,0.8,1.9,1.4,2.9c1.6,2.9,3.7,4.2,5.5,6.4c0.1,0.1,0.2,0.2,0.2,0.3
	c3.3,0.8,7.1,1.1,11.3,1c13.1-0.5,18.4-4.1,27.7-5.9l0.4,0.4c-4.1,1.7-13.5,5.7-18.8,6.4c-5.7-0.5-8.6,1-13,2.1
	c-1.7,0-3.4,0-5.1-0.1c0.6,1,1.2,1.9,1.9,2.9c3.6,4.5,8.1,8.3,9.7,14.6c8.2-2.5,7.5-6.1,24.3-13c9-3.7,15.8-8.7,21.2-15.4
	c15.9-19.3,4.9-30.5,6.2-51.1c3.6,5,8,26.9,8.1,34.2c6.1,0.1,18-4.2,22.5-6.1c7.7-3.4,8.7-7.5,14.9-11.9c0,0.3-3.7,5.1-4.6,6.6
	c-6.5,7.4-21.6,13.2-33,15.5c-2.6,15.8-19.3,25.1-23.2,31c15.5-0.5,59.7,1.7,70.4,0.3c26.9-3.6,36.6-17.9,43.8-21.4l-1.4,3.2
	c-5.6,4.7-11.8,11.1-18.4,14.1c-4.1,1.8-9.6,3.4-14.2,5.4c-9,2.8-26.6,4.3-37.9,4.6c1.4,1.9,13.3,6.4,17.1,7.4
	c0.1,0,0.3,0.1,0.4,0.1l2.1-0.2c-0.2-0.6-1.1-0.3-1.9,0.2c6.5,1.6,17.9,2.3,24.9,2.1c-0.9,0.3-0.1,0.2-2.3,0.7
	c-0.2,0.1-1.7,0.2-2,0.2c-9.3,0.5-16.8-0.2-23-1.4c-9.3,4.1-18.1,7.7-21.7,15.6c-1.3,2.9-2.7,23.7-2.8,28c5.6-2.1,20-7.7,27.8-8.9
	c1.7-1.6,3.3-3.3,4.9-5.1c3.2-3.6,6.5-7.4,9.6-11.1c1.7-2.1,2.9-3.5,4.7-5.6c0.9-1.1,1.7-2.2,2.5-3l3.1-2.5
	c-2.5,8.1-11.6,19-18.4,27.2c10,0.3,26.8,2.5,31.7,4.1c-16.1,0-22.4-2.9-34-1.3c-1.3,1.6-2.5,3.1-3.4,4.4l3.5,0.9
	c0.9,0.1,2.5,0.2,3.4,0.2h0.1c0.4-0.6,0.9-1.1,1.2-1.5l3.1-2.5c-0.4,1.3-1,2.7-1.7,4.1c30.9,0.9,27.9-4.3,46.4-8.8l-6.6,3.3
	c-3.5,2.4-16.2,6.4-22.2,7.5c-6.2,1.2-12.8,1.3-19.4,1.3c-4.4,7.3-11.3,15.4-16.3,21.6c6.2,1,11.4-0.2,20.3-1l5.4-0.8
	c-0.5,0-1.3,0-2,0.2l-8.7,2.7c-6.3,0.8-11.6,0.8-16.2,0.3c-1.2,1.5-2.3,2.9-3.1,4l3.5,0.9c0.9,0.1,2.5,0.2,3.4,0.2
	c33.9,1.2,30.1-4.1,49.2-8.7l-6.6,3.3c-3.5,2.4-16.2,6.4-22.2,7.5c-10.3,1.9-21.5,1-32.3,1.5l-5.8,3.9l-2.1,0.9
	c-0.6,0.3-1.5,0.7-1.8,0.9c-0.2,0.1-1.4,0.8-1.7,1l-1,0.8c-18.2,6.4-18.4,8-41.9,12.5l-49.3,7.6c-7.5,1-14.4,1.3-21.5,2.2
	c-5.2,4.1-11,8-16,10c2.1,1.5,22.2,4.2,26.6,3.9c9.5-0.5,13.7-5.7,18.1-9.2c-1.8,5.1-10.8,11.6-19.9,12.5
	c-12.6,1.3-22.9-4.6-33.4-1.6C333.7,321,330.5,373,384.1,415.9 M511.5,193.1c-3.1,0-6.2,0-9.2,0.2l-5.8,3.9l-2.1,0.9
	c-0.6,0.3-1.5,0.7-1.8,0.9c-0.2,0.1-1.4,0.8-1.7,1l-1,0.8c-7.2,2.6-11.6,4.3-15.8,5.8c1.3,0.4,2.7,0.8,4.2,1.4
	c4,1.6,8.1,2.4,11.7,3.9c1.3,0.5,2.5,1,3.7,1.4c1.8-1.7,3.5-3.5,5.1-5.4c3.2-3.6,6.5-7.4,9.6-11.1
	C509.6,195.5,510.5,194.4,511.5,193.1z M469.9,202.2c11.8-3.5,22.2-8.4,31.4-15.8c-1.3,0.4-2.7,0.8-4.2,1.3
	c-16.6,5.5-15.9,9-23.6,12.8C472.3,201.1,471,201.6,469.9,202.2z M373.2,223.8c-13.9,2.3-25.6,4-35.4,5.2c-1,2.7,1.1,3.1,2.8,6.6
	c3.4-0.2,6.7,0,10.2-0.2l0.4-5.7c2,0.7,1.3-1.2,1.2,1.7l0.8,3.7c6.7,0.8,22.8-2.6,27.3-4.4c3.2-1.3,4.8-4.8,5.7-8.4
	C382,222.6,377.7,223.1,373.2,223.8z M389.1,222c-0.2,1.6-0.5,3.3-0.8,5c0.8-0.3,1.6-0.6,2.2-0.9c0.2-1.1,0.4-2.3,0.7-3.4
	c0.1-0.3,0.2-0.6,0.3-0.9C390.8,221.8,389.9,221.9,389.1,222z M397.5,221.1l-0.1,0.3l0.4-0.3L397.5,221.1z M406.2,219.8
	c-0.2,0.2-0.3,0.4-0.5,0.6c1.6-0.4,2.9-0.8,4-1.1L406.2,219.8z M454.3,212.1c-0.3,0.2-0.7,0.4-1.1,0.6c-11.9,7-16.3,7-30.1,9.5
	c-11.1,2-12.2,3.8-18.7,7.7c-2.5,1.5-5.6,3.1-8.4,4.5c-0.5,1.9-1.2,3.5-2.1,6.2l3.4,1.2l0,0.1c41.1-2.6,71.7-6.4,94.4-26.8
	c-8.7-1.9-15-5.3-22.7-6.7C465.4,209.6,461,210.7,454.3,212.1z M451.5,206.3c1.5-0.9,2.9-1.7,4.3-2.6c15-9.5,18.1-15.1,18-26.6
	c0-4.9,1.4-7.2,2.1-11.4c-12.4-8.9-13.7-5.9-18.7-20.2c-1.5-4.1-0.7-3,0-3.7c-0.7,7.3,11.9,19.6,20.4,20.5c4.9-6.1,4.1-7,11.2-10.6
	c3-1.5,8.1-3.6,12.4-5.1c-14.1-3.1-21.5-9-29.8-9.4c-7.6-0.4-15.7-0.8-23.1-0.1c-16.5,1.6-51.6,21.3-55.6,26.9
	c5.5-1.4,12.1-2.6,18.8-2.4c5.8,0.2,5-0.3,10.4,0.9c3.5,0.8,5.7,0.6,9.9,1.8c0.5,0,1.2,0.1,1.8,0.2c3.1-1.2,6.3-2.2,9.7-3.2
	c-1.7,1.9-0.4,0.4-1.9,1.2l-2.7,1.4c-0.6,0.5-1.3,0.9-2.1,1.3c3.7,1.1,7.9,2.8,9.6,3.3c-4-0.9-7.6-1.9-10.9-2.7
	c-1.3,0.6-2.6,1.1-3.7,1.6c-12.9,6.4-22.5,16-22.5,28c0,2.6-0.1,4.5-0.3,6c5.9-3.3,14.9-6.8,21.8-8.8c-1.7,1.9-0.4,0.4-1.9,1.2
	l-2.7,1.4c-0.7,0.5-1.5,1-2.4,1.5c-0.8,1.2-1.1,2.3-2.2,3.8c-0.8,3.4-3.1,6.5-5.8,9.5C428.9,209.2,440.7,208.1,451.5,206.3z
	 M410.6,210.4c5.7-5.3,4.8-7.3,9.3-11.4c0,0,1.2-0.7,1.5-0.9l0.7-0.5c-1,0.4-1.9,0.8-2.7,1.2c-4.3,2.1-8.2,4.6-11.5,7.4
	c-0.4,1.2-1,2.6-1.6,4.4C407.7,210.6,409.1,210.5,410.6,210.4z M432.4,165c-9.6-2.3-18.1-3.2-33.1,1.1c-10.8,3.1-12.2,2-16.4,9.1
	c-6.1,10.4-12.8,15.5-21.8,25.9l-13.8,14.1c7.8-1,16.3-1.9,25.3-2.5c6.6-0.4,11.6-0.7,15.4-1.1c0-0.1,0.1-0.3,0.2-0.4
	c0,0.1,0.1,0.2,0.1,0.3c14.3-1.4,10.7-4,15.6-20.4C407.7,178.9,418,170.7,432.4,165z M384.6,240.5c-1.7-0.3-3.3-0.3-4.6,0.5
	c0,0-1,1-2.6,2.5C380.4,243.1,382.6,242.3,384.6,240.5z M384.6,112.3c-0.6,0.3-1.3,0.5-1.9,0.8c0.8,1.3,1.9,2.4,3.3,3.5
	C385.4,115.1,384.9,113.7,384.6,112.3z M389.4,122.9c-5.8-1.6-10.3-4.3-12.3-7.2c-10.2,1.7-25.2,12.9-31,16.8
	c-2.8,1.9-5.5,4-7.8,6.5c1.1,0.1,1.2,1,0.6-0.5l-0.3,1.6c-3.7,4.8-5.9,7.5-6.9,10.8c-0.6,2.6-0.7,5.4-0.2,8.4l1.9,4.7
	c8.8-2.6,27.7-10.5,38.4-11.9c-9.7,5.6-24.7,8.2-37.6,15.9l0.9,4.7l0.9,20.2c1.9-0.3,3.8-0.7,5.5-1.2l18.4-14.4
	c8.9-7.5,7-10,17-17.2c4.1-7.2,10.8-11.6,23.3-13.5c0.4-0.3,0.7-0.5,1-0.8c0.6-7.6-2.6-11.1-7-16.2
	C392.5,127.3,390.8,125.1,389.4,122.9z M391.8,150.9c-2.9,1-5.6,2.3-7.7,4.4c1.5-0.9,3.2-1.9,5.1-3
	C390,151.8,390.9,151.4,391.8,150.9z M318.3,207.6c1.5-2.8,2.5-6.5,2.7-9.2c0.5-6.4,0.6-12.8,0-19.2c-2.4,3-4.5,6.4-6.3,10.4
	C311.9,196,312.6,200.6,318.3,207.6z M320.1,172.4c-0.1-0.3-0.1-0.6-0.2-0.8c-1.7-8.4-0.9-7.2-6.4-9.1c-3.8-1.3-6.8-2.7-10.2-4
	c0,4.2,0.2,8.5,0.5,12.7c0.3,4.7,2.7,11.3,5.7,14.5C314.8,179.3,316.4,175.9,320.1,172.4z M303.5,155.4c4.8,1.9,11.2,4,13.9,4.2
	c1.6-11.5,8.1-23.4,0.6-33.4c-1.6,0.7-3.4,1.3-5.2,2c-6.5,2.3-5.6,0.8-7.6,10.9C304.1,144.5,303.6,149.9,303.5,155.4z M315.2,123.2
	c-2.1-1.9-4.9-3.8-8.4-5.5c0.6,2.4,1.1,4.8,1.4,7.1C309.8,124.7,312.4,124.1,315.2,123.2z M304.7,108.9c3.5,1.4,7.3,2.6,11.8,3.7
	c2.2-12.8-5.1-14.7-8.1-25.3c-0.3-0.9-0.5-1.8-0.6-2.6C302,92.1,302.8,100.4,304.7,108.9z M270.9,79.4c-0.3-0.8-0.7-1.5-1.1-2.1
	C270,78.1,270.4,78.7,270.9,79.4z M233.3,75.9c0.1,0.4,0.1,0.8,0.2,1.2c0.4,1.8,1.1,3.3,1.9,5c4.9,10.5,14.5,16.3,33.7,14.2
	c1.3-1.4,2.1-3.4,2.4-5.5c-8.1-5.6-23.7-16.6-34.6-18.4C236.1,73.6,234.8,74.8,233.3,75.9z M276.1,94l0,0.9c1.1,0.6,2.1,1,3,1.5
	C278.1,95.5,277.1,94.7,276.1,94z M251.4,154.7c-1.5,2.9-3.5,5.8-6.1,8.8c-3.7,4.3-6.4,7.2-5.9,13.6c2.3,1.8,7.4,3.8,10.2,5.5
	c20.2,11.6,14.9,12.8,24.4,20.8l17.7,13.9c0.2,0,0.5,0.1,0.7,0.1c-1.5-7-4.2-13.7-5.8-21.1c-0.4-1.9-0.7-3.7-0.9-5.4
	c-7.9-3.2-15.9-5.2-21.6-8.5c5.6,0.8,14.1,3.7,21.3,6.3c-0.6-5.2-0.7-10.2-1.1-16.1c-8.1-4-15.9-3.3-31.3-16.5
	C252.5,155.6,251.9,155.1,251.4,154.7z M265.3,214.9c-3.9-4.1-7.2-7.8-10.4-13.2c-3.5-5.9-4.7-5.1-13.7-7.6
	c-6.7-1.9-11.9-2.6-16.5-2.5c0.6,5.7,1.7,15.5,8.1,18.1C238.1,211.9,257.3,215.9,265.3,214.9z M224.6,190.5c2-0.4,2.5-0.1,6.3-0.2
	c5.6-0.1,11.1,0.9,15.8,2c-3.3-4.7-32.7-21.2-46.5-22.5c-5.6-0.5-11.6-0.3-17.4,0l1.4,1c0.3,0.2,1.8,1.1,1.8,1.1
	c6.4,5.9,3.6,8.2,16.7,18.3c1.8,1.4,3.4,2.7,4.8,3.9c2.4-0.8,4.9-1.6,6.5-1.6c3.6-0.9,5.4-0.8,8.3-1.5l0.4-0.1
	c0.2-1.5,0.5-3,1.1-4.4c0.1,0.2,0.2,0.4,0.3,0.5l0.4,1.1C224.4,188.7,224.5,189.5,224.6,190.5z M222.4,191.7
	c-4.9,0.4-9.3,1.6-14.5,2.9c5.9,5,8.8,8.2,15.6,10.7C222.7,200.6,221.9,196.2,222.4,191.7z M181.3,169.9l-0.6,0
	c-8.7,0.5-16.2,8-34.9,9.3c6.4,3.9,13.6,7.6,24.8,9.7c23.2,4.3,16.2,4.3,32.2,8.4c-5.4-6.4-17.1-14.4-19.3-23.7
	C182.4,172.3,181.9,171.1,181.3,169.9z M143.9,178.2c3.3-0.3,6.4-0.8,8.7-1.4c3.2-0.9,13.2-4.6,14.3-6.2c-9.5-0.2-24.2-1.5-31.7-3.8
	c-3-1.3-6.5-2.4-9.5-3.6c3.2,4.6,8.5,8.9,17.1,14.3C143.2,177.7,143.6,177.9,143.9,178.2z M228.3,221.4c3.1,1.4,5.9,2.9,7.7,4.2
	c4.9,3.6,10,9.6,11.9,15.8c1,3.4,0.7,6.9,2.4,10.3c0.5,0.9,0.9,1.7,1.4,2.4c8.4-1,17.8-2.6,19.4-3.8c-15.7-6.3-37.4-28.2-37.6-28.4
	C232,221.2,230.2,221.1,228.3,221.4z M256.7,258.3c3.7,1.2,8.8,0.6,17.4,1.2c4.9,0.3,9.2,1.1,13.6,1.5c-0.9-1.4-2.7-2.7-6.2-3.7
	C273.4,254.8,265.4,256.9,256.7,258.3z M279.1,245.7c1.4,0.3,0.5,0,2.3,0.8l6.8,3.3c0.2-5.1-1.7-6.8-1.9-9.8
	c-2.1-1.2-13-13.1-25.5-13.2c-1.5,1.8-3.4,3.9-2.1,6c0.3,0.6,5.3,3.7,6.6,4.4L277,244c0.2,0.1,0.4,0.3,0.5,0.4
	c0.2,0.1,0.4,0.3,0.5,0.4L279.1,245.7z M197.1,538.6c-3.4,3.2-6.3,6.9-9.2,11.7c4.6-1.5,9.3-2.9,13.2-5.1
	C199.6,542.9,198.3,540.7,197.1,538.6z M157.2,544.4c8.7-1.4,18.7-2.1,25.4-4.8c3.9-1.6,7.9-3.8,11.7-6.3
	c-5.3-10.8-5.4-17.2-7.8-34.7l-5.1,12.8c-0.1-6.1-0.2-11.1-0.3-15.2c-1.6,0.8-3.1,1.8-4.6,3.4c-0.1-0.1-0.1-0.1-0.2-0.2
	c-0.6,5.7-1.2,12.7-1.8,20.4c-0.7,9.7-7,10.9-12.6,16.7C159.4,539,158.3,541.8,157.2,544.4z M200.6,529.2c3.5-2.3,6.9-4.5,10-6.3
	c-0.9-0.4-1.9-0.8-3.4-1.6c-4-2.1-9.1-6.1-9.5-9.6C196.9,518.8,198.3,524.3,200.6,529.2z M212,522.2c20.4-11.2,37.8-16.5,40-41.1
	l-16.5,6.3c-6.6,2.7,1.6,0.2-8.6,3.4c14.8-17.2,22.1-6.5,30.5-19.9c-2.2-0.4-4.2-0.7-5.1-0.8c-16.1-1.9-23.7,3-34.8,8.4
	c-7.9,8.5-14.3,12.1-19.8,13.8c-0.7,5.5,0.1,12.1,3.7,18.1c3.5,5.9,6.7,8.2,9.7,9.7L212,522.2z M71.7,510.7c-2.6,1.2-5,2.6-7.3,4.1
	C67,513.6,69.4,512.2,71.7,510.7z M494.8,483.6c9,7.7,20.3,13.7,32.9,18.1C515.4,489.6,511.6,488.7,494.8,483.6z M367.7,446.8
	l-2.4-1c-0.2,1.9-0.4,4.6-0.6,8.2l4.4,2.2C368.6,452.4,368.1,449.2,367.7,446.8z M339.9,441.3c1.7,0.9,3.5,1.9,5.6,3
	C343.8,441.5,341.7,440.2,339.9,441.3z M411.4,485.4c2.1,1.4,4.3,2.8,6.7,4.1l5.4,3C420.6,489.5,416.8,487.1,411.4,485.4z
	 M393.9,479.5c-4.5-3.8-8.9-7.9-15.3-11.9c0.2,0.7,0.3,1.4,0.5,2C380.6,475.2,386.5,477.8,393.9,479.5z M370.2,467.5
	c-1.4-2.6-3.2-4.3-5.8-5.6c-0.1,2.8-0.1,5.9-0.1,9.4l-4.4-11.1c-0.3-0.1-0.6-0.2-0.9-0.2c-2.1,15.6-2.5,22.2-6.9,31.8
	c5.7,9.4,21.1,12.1,37.4,14.8c-1.6-3.2-2.5-6.8-5.7-10.1c-5.6-5.8-11.9-7-12.6-16.7C370.8,475.4,370.5,471.3,370.2,467.5z
	 M348.2,457.5c-1-0.2-2.1-0.5-3.2-0.7c0.2,2.6,0.6,6,1.2,9.8C347.5,463.6,348.1,460.5,348.2,457.5z M347.3,473.4
	c0.2,1.4,0.5,2.8,0.8,4.1c0.1-1.8,0.1-3.8-0.2-5.9C347.8,472.2,347.6,472.8,347.3,473.4z M344.3,510.1c5.2,11.7,19.3,21.5,31.4,25.5
	c-4.7,2.7-6.5,3.7-5.9,8.7c0.3,2.9,3.4,6.8,5.9,10.6c-0.9-3.5-3-7.1-1.9-11.6c1.9-7.4,4.7-6.4,0.1-16
	C369.8,518.7,359,511.9,344.3,510.1z M337.4,502c-0.5-6.9-1.1-13.4-1.6-19.4c-1.5,0.7-2.7,1.1-4.9,2.4l-4.4,3l0,2.6l-0.8-2.1
	l-3.4,2.3c0.9-1.7,1.8-3.1,2.7-4.3l-4.6-11.5c-0.9,1.7-2,3.4-3.4,5.1c-3.7,28.3-4.5,36.2-22.1,64.8c5.3,3,11.6,5.1,18,7.1
	c1.1-3.9,2.4-8.2-0.1-11.5L309,538c18-4,19.7-19.3,24.9-29.8C334.9,506,336.1,503.9,337.4,502z M335.5,479.7
	c-0.5-5.1-1-9.7-1.4-13.8l-4.7-8.8c-0.8,1-1.5,2-2.1,2.9c-0.3,6.2-0.6,14.4-0.7,24.8C329.4,482.1,332.3,481.4,335.5,479.7z
	 M318.4,554.1c9,3,17.4,6.4,22.8,12.6c0.4,0.5,0.8,1,1.3,1.4c11.5-9.6,1.4-13.1-5.5-25.8c-2.9-5.3-4.1-10.8-7.2-15.2
	C314,538,318.3,543.6,318.4,554.1z M344.7,570.4c4.1,4,7.9,6.5,11.5,8.3c-0.6-4.1-2.4-8.2-5.3-13.2
	C348.4,567.2,346.3,568.8,344.7,570.4z M361.7,581c4.6,1.6,9,2.6,13.2,4.5c0.1-1.4-0.2-2.9-1.1-5.6l-12.1-2.9
	C361.7,578.5,361.7,579.8,361.7,581z M377.9,587.2c1.2,0.7,2.3,1.6,3.5,2.6l-3.1-3.1L377.9,587.2z M356.4,582.7l-5.8-2
	c0.8,4.2,1.7,8.8,2.8,13.2C355.2,589.7,356.2,586.1,356.4,582.7z M347.9,604.8L347.9,604.8c-0.7,0.8-1.2,1.7-1.6,2.5
	C346.8,606.5,347.4,605.7,347.9,604.8z M341.5,613c-0.3-2.1-0.2-4.4,0.4-6.9c3-11.9,7.6-10.4,0.2-25.6c-0.6-1.3-1.3-2.5-2.1-3.7
	c-2,3.8-3.1,8.2-4.4,13.9l-6.3-13.3c5.2-1.5,6.8-2.6,8.1-4.1c-4.6-5.6-11.2-10.5-19.3-14.1c-0.1,0.4-0.1,0.9-0.2,1.4
	c-0.3-0.7-0.6-1.3-0.9-1.9c-7.9-3.4-17.2-5.6-27.6-6.4c-10.8,31.8,1.7,48.9,16.8,74.7c6.9,11.8,7.7,23.6,24,29.1c3,1,5.2,1.7,7,2.1
	c5.1-15.5-1.1-23.5,3.2-38.9l-5.7-1.2c-0.3-0.1-1-0.2-1.5-0.4C336.4,616.8,339.1,615.2,341.5,613z M282.6,502.5
	c1.7-1.2,3.5-2.6,5.4-4.6C286,499.3,284.2,500.8,282.6,502.5z M296.5,447.5c-4.3-7.9-10.9-9.2-14.2,3.5c4-0.2,8-0.7,11.6-2
	C294.6,448.7,295.5,448.3,296.5,447.5z M281.8,453.1c-0.8,3.8-1.4,8.7-1.6,14.8c5.1-2,10.1-6.6,15.7-16.3
	C290.5,452.4,286,452.8,281.8,453.1z M271,469.1l-0.8-1.4c-0.4,0.4-0.7,0.9-1,1.3C269.8,469,270.4,469,271,469.1z M259.3,467.5
	c3-5.4,5.4-10,7.4-13.7c-2.8,0.1-5.9,0.4-9.3,0.7c3.2-1.6,6.7-2.4,10.3-2.7c12.4-24.2,0.8-9.5-20.8,14.3c20-37.3-8.7-10.8-22.6,4.7
	c3.3-0.9,6.3-2.1,9.8-2.9C244.2,465.6,252.3,466.4,259.3,467.5z"/>
</svg>
