<?xml version="1.0" encoding="utf-8"?>
<!-- Generator: Adobe Illustrator 22.0.0, SVG Export Plug-In . SVG Version: 6.00 Build 0)  -->
<svg version="1.1" id="Layer_1" xmlns="http://www.w3.org/2000/svg" xmlns:xlink="http://www.w3.org/1999/xlink" x="0px" y="0px"
	 viewBox="0 0 768 1024" style="enable-background:new 0 0 768 1024;" xml:space="preserve">
<style type="text/css">
	.st0{fill-rule:evenodd;clip-rule:evenodd;fill:#262122;}
</style>
<path class="st0" d="M491.7,532.4h7.8c23.6,24.3,55.3,37.2,65.8,40.4c11.8,3.5,15.1,7.8,27.8,9.7c18.1,2.6,18,0.5,28.8,8.9
	c-12.2-6.2-13.6-5.4-28.9-6.4c8.5,3.9,15.4,7.5,28.7,9.4c29.2,4.2,28.9,0.8,46.3,14.3c-21.2-10.8-22.1-8.4-52.5-10.6
	c2.9,5,6.4,9.7,10.5,14c12.4,4.4,26.6,6.6,40.8,6.5c-10.2,3.7-4.5-1.6-8.6,5.2c9,4,17.1,11.5,22.7,20.2c18.4,5.6,38.7,8.5,59.2,8.4
	c-16.4,6-7.2-2.5-13.8,8.3c17.3,7.7,32.7,23.6,41.5,41.2c-0.9-0.6-2.2-2.4-2.6-1.8c-0.4,0.5-2-1.4-2.5-1.8c-3.6-3-2.5-1.8-6.4-5.6
	c-32.1-31.9-36.4-28.6-91.5-46.2c3.2,19.2,1.6,30.5,12.2,47.2c-26-20.7-2.5-37.4-44.3-66.7c-5-3.5-9.1-6.9-12.5-10
	c1.6,10.7,1.1,17.5,7.2,27.3c-16.2-12.9-1.6-23.2-27.5-41.5c-5.6-3.9-9.2-7.4-12.4-10.6c-8.2-3.3-19.3-6-35.5-8.2
	c0.9,1.2,1.9,2.4,3.2,3.5l14.5,9.8c-0.6-0.2-7.6-3.2-17.8-7.3c2.2,4.6,4.6,8.6,8.9,12.5l23.3,15.8c-1.4-0.5-25.9-10.8-55.5-22.9
	c3.1,2.6,6.5,5.1,10.4,7.2l7.3,4.1c-19.1-3.4-24-10.3-32.9-17.5c-3-1.2-6-2.4-9.1-3.7c-0.7,2.2,0.8,3.7-0.8,7.2
	c-1-4.1-2-6.9-3.4-8.9c-5.7-2.3-11.5-4.6-17.1-6.8l-2.1-0.5c0.3,3.2,0.9,8,1.7,12.8l4.5,2.2c12.9,6.4,22,16.4,33,25.3
	c6.7,1.1,13.5,2.4,19.2,4.5c17.1,6.2,14.4,9.5,25.1,13.9l-10.6,0c-0.2,0-1-0.1-1.4,0.1c14.5,17.8,30.5,12.8,37.8,31.6l-5.5-3.4
	c-10-7.5-16.4-13.5-31.2-18c0.2,12.5,7.9,14.6,9.2,23.9c-4.8-7.6-10.7-9.3-12.5-19c-1.3-7-3.2-12.9-6.8-17.8
	c-16.7-3.3-26.2-8.5-34.1-14.4c-20.5-2.2-16-2.4-30.8-7.2c-0.5,12.7,14.4,24.2,26.7,28.2c-3.7,2.1-5.1,3-4.7,7
	c0.1,0.8,0.5,1.8,1,2.8c11.8,1.9,23.8,4,34,7.7c27.4,10,23.1,15.3,40.3,22.4l-17,0c-0.3,0-1.6-0.1-2.3,0.2
	c23.3,28.7,49,20.5,60.8,50.7l-8.9-5.5c-16-12-26.3-21.7-50.1-28.9c0.4,20.1,12.7,23.5,14.8,38.5c-7.6-12.3-17.2-15-20-30.6
	c-4.6-25-14.4-41.8-47.9-49c0.6,0.8,1.1,1.7,1.6,2.5c-1.9-0.9-3.3-2-4.5-3.1c-4-0.8-8.3-1.4-13-1.9c-32-3.4-28.3-3.9-45.6-9.9
	c-0.9,1.5-1.8,3-2.8,4.7c11.6,6.5,28.8,7.7,37,17.2c13.5,15.8,23.8,9.7,33.7,20l-26.2-8.8c1.8,9.9,4.5,21.8,10.5,28.1
	c8.5,8.9,16.8,7.2,21.9,21.3c-0.6-0.4-1.5-1.6-1.8-1.2l-32.9-29c-4.8,7.5-1.4,10.5-1.5,17.3c0.6,0.9,1.1,1.7,1.6,2.5
	c-0.6-0.3-1.1-0.6-1.6-0.9c-0.1,0.5-0.1,1.1-0.2,1.7c0.1-0.6,0.1-1.2,0-1.8c-14.9-8.6-12.2-21.9-23.5-33.5
	c-8.6-8.9-17.9-12.5-22.8-22c-5.7,22.2,3.7,35.3,14.9,54.4c5.5,9.4,6.1,18.8,19.1,23.2c11.3,3.8,9.6,0.9,15.2,8.9
	c2.7,3.8,6.1,10.1,8.1,15.2l-1.8-1.8l-9.3-3.1l-2.2,2.5c0-1.2,0.1-2.2,0.2-3.1l-16.8-5.6c-1,7.9-4.1,14.4-7.8,20.6
	c2.6,7.9,6.1,15,10.9,20c13.7,14.3,27,11.5,35.3,34.2c-1-0.6-2.4-2.5-2.9-2l-48.8-43.1c-2.8,4.5-5.5,9.1-7.6,14.3
	c0.7,4.2,1.8,8.7,0.6,15.3c0.4-3.8-0.7-7.4-2-11.2c-2.3,9.6,0.9,19.2,0.3,25.9c-0.8,9.1-3,15.3-6.8,21.1c6.3,1.6,6.8,1.9,13.2,10.9
	c4.3,6.1,9.8,16.2,13.1,24.4l-13.2-13.2l-8.1,9.3c0.5-11.3,2.8-12-1.3-23.1l-8.4-2l-0.3,0.4l0.2-0.4l-16.4-3.9
	c2.7,37.8-22.6,55.9-34.6,86.6c-6.8,17.2-0.2,35.2-1.2,47.3c-1.8,20.2-8,31.7-19.2,44.6c18.1-39.9,1.2-56.4,11.1-91.6l-11.8-2.5
	c-0.5-0.1-2-0.5-3-0.9c20.7-5.2,30.8-26,39.8-44.5c12-24.9,10.8-39.2-3.2-62.7c-21.7,14.1-25.8,27.3-31.5,51.7l-13-27.4
	c19.6-5.6,14.2-8.5,27-19.1c23.8-19.7,2.9-27-11.3-53.1c-5.9-10.8-8.5-22.2-14.9-31.3c-38.2,26.6-18.7,38.1-24.3,68.8
	c-12.7-26-0.9-8.8-12-11.7c2.2-9.3,7.6-20.5,1.2-29l-7.4-5.6c37-8.1,40.6-39.8,51.2-61.3c12.4-25.3,32.8-41.1,28.9-75.1
	c-1,7.1-11.4,15.3-19.6,19.7c-4.4,2.4-6.8,3.2-9.8,4.5c-1.4,2.4-2.7,5.2-4.2,8.4c-3.7-3.5-6.4,2-2.7-4.6l-16.7,11.3
	c7-13.7,14-16.8,21.4-20.1c0.5-0.9,1-1.9,1.5-3l-32.9,4c7.2-3.7,22-3.2,30.4-6.6c7.7-3.1,15.6-9.5,22.4-13.3l1.4-0.8
	c0.5-0.7,0.9-1.5,1.4-2.2c7.5-12.6,9.1-26.6,7.4-37.9c-0.8,0.9-1.4,1.7-2.1,2.4c-10.3,12.5-17.7,14.5-23.7,15.4
	c0,5.2,0.2,11,0.6,17.4l-8.4-15.7c-1.4,0.6-2.7,1.5-4,2.8c-0.4-0.4-0.9-1.6-1.1-1.2l-5-3.2c-9.8,16.4-8.7,30.9-28.9,49.2
	c-30.6,27.7-12,32.9-15.4,64.1c-11-14.1-6.6-37.2-4.5-54.3c-13.8,7.4-23.9,12.4-32,18.2c3.6,6,7.8,11.7,11.2,18.5
	c6.6,13.4,8.8,33.1,31.8,38.1l-4.6,3.5c-4,5.3-0.7,12.3,0.7,18.1c-6.9,1.8,0.4-8.9-7.5,7.3c-3.5-19.1,8.6-26.3-15.1-42.8
	c-4,5.7-5.6,12.7-9.3,19.5c-8.8,16.2-21.8,20.8-7,33c8,6.6,4.7,8.4,16.8,11.9l-8.1,17c-3.5-15.2-6.1-23.4-19.6-32.2
	c-8.7,14.6-9.4,23.5-2,39c5.6,11.5,11.9,24.5,24.7,27.7c-0.6,0.2-1.5,0.5-1.9,0.5l-7.3,1.6c6.2,21.9-4.4,32.2,6.9,57
	c-7-8.1-10.8-15.2-11.9-27.8c-0.7-7.5,3.4-18.7-0.8-29.4c-7.5-19.1-23.2-30.4-21.5-53.9l-15.5,3.7c-2.5,6.9-1.1,7.3-0.8,14.4
	l-5.1-5.8l-8.2,8.2c2.1-5.1,5.5-11.4,8.1-15.2c5.6-7.9,4-5,15.2-8.8c12.9-4.4,13.6-13.8,19.1-23.2c12-20.5,22-34.1,13.3-59.5
	c-9.3,0.7-17.4,2.8-24.2,6.1c-1.8,3.4-3.6,7.1-5.5,11.4c-4.4-4.3-8-0.3-7-2.6c-2.3,2.4-4.1,4.9-5.4,7.6c-5.9,12.2-2.3,10.9,0.1,20.4
	c2,7.8-3.4,13.3-2.9,19.5c-1.6-9.3,3.7-12-1.8-20.6l-32.9,29c-0.3-0.4-1.2,0.8-1.8,1.2c5.1-14.1,13.4-12.4,21.9-21.3
	c6-6.3,8.7-18.2,10.5-28.1l-26.2,8.8c9.9-10.3,20.2-4.2,33.7-20c2.7-3.1,6.3-5.3,10.5-7.2c1.8-3.3,4-7.6,6.8-13.2l-37.7,4.6
	c-1.6,3.3-3.8,6.4-8.6,8.7c1.6-2.8,4.1-5.8,5.4-8.3l-11.9,1.5c3.4-1.7,7.8-2.9,12.8-3.8l0-0.1c0.4-4-1-4.8-4.7-7
	c12.3-4,27.1-15.5,26.7-28.2c-15.1,4.9-10.1,5-32,7.3c-29,3.1-36.5,14.3-39.7,32c-1.8,9.7-7.7,11.4-12.4,19c1.3-9.3,9-11.4,9.2-23.9
	c-14.8,4.5-21.2,10.5-31.2,18l-5.6,3.4c7.3-18.8,23.3-13.7,37.8-31.6c-0.4-0.2-1.2-0.1-1.4-0.1l-10.6,0c10.7-4.4,8-7.7,25.1-13.9
	c19.7-7.2,50.1-4.5,54.4-20.2c1.3-4.7,2.8-13,3.6-19.5l-1.4-0.9c-3.2,1.5-6.3,2.9-9.2,3.7c0.5-0.4,1.3-1.6,1.6-1.2
	c0,0,2.2-1.6,5.6-3.7l-1.2-0.7c-0.5-0.2-1.3-0.4-2.3-0.6c-10,2.3-12.7,3.8-15.2,14.5c-2-4.3,0.8-5.6-1.8-9c-15.4,8.8-17,18.7-41,23
	l7.3-4.1c11.9-6.3,18.4-16.3,29.7-21.9c3.4-1.7,6.6-3.3,9.6-4.7c-4.7-0.8-9.3-1.5-11.2-1.7c-0.6-0.1-1.2-0.1-1.8-0.2
	c-26.8,10.7-55.7,22.9-57,23.3l14.5-9.8c3.7-3.3,5.1-6.8,7.1-11c-14.7,4.1-26.7,11.7-43,19.2l-0.1,0c-2.4,2.2-5.1,4.5-8.7,7.1
	c-26,18.3-11.3,28.6-27.5,41.5c6.6-10.4,5.6-17.4,7.6-29.4c-34.3,11-37,8.9-56.9,28.8c-2.4,2.4-1.7,1.7-4,3.5
	c-0.3,0.3-1.3,1.5-1.6,1.1c-0.2-0.3-1.1,0.8-1.6,1.1c5.5-11,15.1-20.9,25.8-25.7c-4.1-6.8,1.7-1.5-8.6-5.2
	c13.4,0.1,26.6-1.9,38.5-5.8c-1.1-2.1-3.3-5.4-9.9-6.2C42.9,655.9,18,674.7,0,679.8c0.8-0.7,2.1-2.5,2.6-2c0,0,30.2-21.9,50.5-25.4
	c37.9-6.6,33.5-1.6,55.4-15.3c0.2-0.4,0.5-0.8,0.7-1.2c-18.9,1.4-19.5-0.1-32.7,6.6c10.8-8.4,10.7-6.2,28.8-8.9
	c1.1-0.2,2.1-0.3,3.1-0.5l-42.4-4.6c24.1-2.9,25.2,0.8,43.8,0.8c4.5,0,8.6-0.4,12.3-1.1c3.1-1.4,6.4-2.9,11-4.3
	c3.3-1,8.7-2.9,15.2-5.9h18.2c7.3-0.6,14-0.5,20.2,0h16.8l-3.8,1.5c3.6,0.5,7.1,1.1,10.5,1.6c2.2-1.1,4.2-2.2,6-3.1h13
	c-0.4,0.7-0.8,2.2-1.2,4.4c1-0.4,1.9-0.9,2.9-1.3c-0.2-1.5-0.4-2.5-0.7-3.1H242c4.5-0.7,7.9-1.2,10.7-1.5c3.9-2.6,7.9-6.2,11.9-11
	l-17.3-1.9c10.3-1.2,13.9-0.5,18.9,0c3.6-4.5,7.3-10,11.1-16.6c-31.5,4.8-48.2,2.9-79.4,5.9c21.8-11,51.6-2.7,75.2-11.2
	c87.3-31.5,85-167,94-233.6c-1.3-0.5-2.9-1-4.9-1.6c-4.1-1.3-7.3-1.9-12-2.7c-9.3-1.5-17.9-1.8-27.4-3l-52.8-8.1
	c-25.2-4.9-25.4-6.5-44.9-13.4l-1.1-0.9c-0.3-0.2-1.6-1-1.8-1.1c-0.4-0.2-1.3-0.6-2-0.9l-2.2-1l-6.2-4.2
	c-11.5-0.5-23.6,0.4-34.5-1.6c-6.4-1.2-20-5.5-23.8-8l-7.1-3.5c20.4,5,16.4,10.7,52.7,9.3c1,0,2.7-0.1,3.7-0.2l3.7-0.9
	c-6-8.4-22.1-25.3-25.8-36.9l3.4,2.7c0.8,0.9,1.7,2.1,2.6,3.3c1.9,2.3,3.2,3.9,5,6.1c3.3,4,6.9,8.1,10.3,11.9
	c22.8,26,53.9,32.2,96.1,35.4c-9.6-3.8-17.7-10.7-19.7-16.4c6.7,5.5,13.1,13.3,27.7,14.1c1.5,0.1,4.1,0,7.4-0.3
	c-1.5-4-2.2-5.8-2.2-12.6c0.1-12.5-9.7-22.5-22.8-29.4c-4.4,1.4-8.9,3.6-12.4,4.5c-3.2-0.9-4.8-1-4.2-3.3l10.9-3.8
	c-1.2-0.6-2.3-1.2-3.2-1.9l-2.9-1.5c-1.6-0.9-0.2,0.7-2-1.3c3.4,1,7.2,2.3,10.9,3.7l0.7-0.3c-3.2-2.1-16.3-7.6-25.2-13.1
	c-9.9-6-11.6-8.6-28.6-11.8c-21-3.9-27.7-3.8-46-14.5c-4.9-2.9-7.4-5.4-12.1-7.6c-27.5-0.7-39,17.6-80.7,12.2l-13.3-4.2
	c-1.1-0.2-2.2-0.3-3-0.3l8.3,1.2c19.3,1.8,27.1,4.7,44.5-2.5c5.5-2.3,11.7-3.6,17.9-6c6.7-2.6,11.2-3.2,18.3-5.5
	c-2.6-2.6-6.7-4.1-10.9-6.2c-11.8-5.8-10.8-11.2-36.2-19.6c-33.8-11.1-40.1-3.1-72.7-3.2c8.9-2.9,42.9-7.1,55.6-6.2
	c11,0.8,36,10.6,45.2,14c0-1.4-0.1-3.8-0.3-6.9c-3.2-2.7-6.2-5.5-9.1-7.9l-1.5-3.4c2.8,1.4,6,4.3,10.4,7.6
	c-0.8-11.9-2.3-29.1-3.7-32.3c-5.6-12.3-19.6-17.8-34.1-24.2c-0.7-0.6-5.1-4.2-5.7-2.3l3.8,0.3c7.2,2,18.7,6.5,24.7,9.5
	c10.9,5.5,9.7,6.9,17.1,16.3c13-1.4,32.3-20.2,31.3-31.4c1.1,1,2.3-0.7,0.1,5.6c-7.7,21.8-9.7,17.3-28.6,30.9
	c1.2,6.5,3.3,9.9,3.3,17.4c0,6.9,0.7,12.4,2.9,17.4c6.5,3.5,14.7,6.5,25.5,8c11.4,1.5,58.8-0.9,75.4-0.3
	c-4.2-6.3-22.1-16.3-24.9-33.2c-12.2-2.4-28.4-8.6-35.4-16.6c-0.9-1.6-4.9-6.7-4.9-7.1c6.6,4.7,7.7,9.1,15.9,12.8
	c4.7,2.1,17.6,6.7,24.1,6.6c0.2-7.8,4.9-31.2,8.7-36.6c1.3,22.1-10.4,34.1,6.6,54.7c5.9,7.1,13.1,12.5,22.7,16.5
	c18,7.4,17.3,11.2,26.1,13.9c1.7-6.8,6.5-10.8,10.4-15.7c2-2.5,2.9-5,5-7.6c1.3-1.7,2.8-2.8,4.2-4.4c-6.3-4.2-12.5-7.1-17-11.4
	c-3.6-3.5-6.3-5.5-11.1-8.1c-5.9-3.1-14.5-7.2-21.4-8.8l-8.7-1.9c19.6-1.1,27.5,5.6,40.8,9.6c-0.5-31.7-26.1-26.9-43.5-36
	c35.5,2.4,46.4,14.4,52.8,37.1c1.2,4.2,5.8,7.7,11.9,11.9c3.5-12.4-7.7-20.2-11.6-29.4c12.4,10.9,17.3,21.1,15.1,31.8
	c2.6,1.8,5.5,3.9,8.3,6.2c6.7,5.4,18.3,12.3,32.8,14.4l1.2-26.1l-1.6-1.4c-0.5-0.7,0,0.7-0.8-1.3c-0.6-1.6-0.4-0.3,0-1.2
	c0.8,0.8,1.6,1.5,2.4,2.3l0.1-3.3l2.5-12.6l3.1-7.6c1.1-6.6,0.3-12.6-1.8-17.8c-23.8-8.4,1.1-10.8-47.9-13.4
	c-27.3-1.4-32.8-1.4-51.9-10.2c-1.2-1.2-1.4-1.2-1.8-3c15.6,6.6,17.5,8.3,41.4,8.9c-3-3.7-7-4-11.2-13c-1.8-4-2.7-8-3-12.2
	c-7.5,4.6-19.4,8-32.7,7.6c-6.8-1.6-11.2-3.9-19.9-3.2c-8.1-1.1-22.5-7.2-28.8-9.8l0.6-0.6c14.2,2.7,22.3,8.2,42.3,9
	c18.2,0.7,31.7-5,36.5-12.9c-7.1-2.8-14.1-5.5-21.1-8.7l-37-20.8c-5.2-2.7-13.4-7.4-18.9-9.5c-1.7-1.7-0.1-0.4-2.6-1.9
	c-1.4-0.8-1.5-0.7-3.1-1.5c-3.2-1.6-3.8-1-3.6-2.7c13.9,2.3,48.1,20.7,53.8,22c1.6-6.7,4.8-16.3,1.5-23.5c-2.7-5.9-9.9-12-11.8-18
	c5.1,3.8,14.5,15.6,16.9,21.3c2,5,1.4,11,1,16.3c-0.7,8.6-3.6,7.6,5.3,11.9c16.5,7.9,32.2,10.7,48.4,17.3c5.6,2.3,10.5,5.2,16.2,7
	c0-2.3,0.1-4.3,0.2-6.1c-0.4-0.5-1-1.4-1.1-1.5c-0.5-1.7-0.8-0.5,0.2-1.6c0.3,0.3,0.7,0.6,1,0.9c0.8-11.5,2.1-12.4-11-22.8
	c14.3,2.8,16.8,13.1,16,25.4c0,0.8-0.1,1.5-0.1,2.2c3.4,3.7,5.5,6.9,6.7,10.9l0.8,0.5c4.1,2.5,8.9,7.8,13.4,9.1
	c8.8-3.4,12.1-12.2,17-18.9c4.6-6.3,0.3-5.5,0.6-12.6c0.2-4.9,3-8.9,3.6-12.9c-19.7-6.6-48.9-16.9-57.7-30.9
	c-2.1-3.3-6.7-15.5-5.8-18.8l1.2,3.7l5.6,10.9c7.6,13.3,44.5,27.1,60.7,29.4c2.4-4.3,4.7-10.7,7.4-15.1c3.5-5.6,6.1-6.7,6.8-14.5
	c1.2-14-7.2-19.7-14-28.7L385.3,0c0.8,2.3,3.4,2.9,5.7,4.8c4.2,3.4,1,3,6.6,5.3c11.9,9.9,15.4,22.5,10.7,39
	c-4.6,16.3-15.7,19.1-12.4,38.7l0.4-0.1c1.8-3.1,4.2-6,7.4-8.7c4.7-1.9,2-1.6,5.5-4.5c1.9-1.6,4.2-2.1,4.8-4l-4.9,5.6
	c-2.8,3.7-5.9,6.8-8.3,10.4c17.7-4.9,28.5-11.7,42.3-18.9c5.1-2.7,9.5-4.3,14.6-7c0.3-20.9,2.6-26.1,17.1-39.1
	c1.2,1.3,0.9-0.1,0.3,1.9c-0.1,0.2-1.3,1.8-1.6,2.2c-3.8,5.8-8.2,7.9-9,16.7c-0.6,6.5-0.6,15.8,4,20.6c29.3,3.2,44-5.8,51.5-21.7
	c1.3-2.6,2.2-4.9,2.9-7.7c0.8-3.2,0.5-5.5,2.9-8.2c0.3,7.9-0.5,15.3-3.8,22.5c-4.9,10.8-9.8,11.1-13.3,15.6
	c28.6-0.8,30.9-2.8,49.5-10.7c-0.5,2.2-0.7,2.2-2.2,3.6c-22.9,10.6-29.4,10.5-62,12.2c-58.9,3.1-28.4,6-57.7,16.2
	c-9.3,3.2-17.2,6.9-25.1,10.7c-5.5,2.7-9.8,5.5-13.1,8.4c1,3.5,2.8,4.8,5.1,8.5c2.3,3.6,4.2,9,6.2,12.6c13.5-2,44.4-13.5,50.8-24.6
	l4.7-9.2l1-3.1c0.8,2.8-3.1,13-4.8,15.7c-7.4,11.7-31.9,20.3-48.3,25.8c0.5,3.3,2.8,6.7,3,10.8c0.2,5.9-3.4,5.2,0.5,10.5
	c0.4,0.6,0.9,1.2,1.3,1.8c3-1.2,5.4-2.3,6.7-3c8.1-4.7,13.3-12,20.2-18.4c0.6,1.1,0.8-0.5,0.1,1.4c-0.9,2.4-0.3,0.7-0.9,1.5
	l-23.8,22c2.7,4.2,5.6,8.4,10.7,10.4c3.8-1.1,7.8-5.5,11.2-7.6c5.4-3.3,6.6-4.2,6.2-11.4c-0.6-10.3,1.5-18.9,13.4-21.2
	c-13.1,10.4-9,9.4-8.9,25.9c4.8-1.5,8.9-4,13.6-5.8c8.6-3.5,17.1-5.7,25.7-8.6c-0.5-11.2,5.6-22,18.6-33.5
	c-4.4,10.3-16.2,19-14.5,32.1c3.5-1.3,7.1-2.7,10.7-4.5c7.5-3.6,5.1-2.8,4.5-10c-0.4-4.4-0.9-9.4,0.8-13.6c2-4.8,9.9-14.7,14.1-17.8
	c-1.6,5-7.6,10.1-9.9,15c-2.8,6-0.1,14.1,1.2,19.6c4.7-1.1,33.3-16.5,45-18.4c0.1,1.4-0.4,0.9-3,2.2c-1.3,0.6-1.4,0.5-2.6,1.2
	c-2.1,1.3-0.8,0.2-2.2,1.6c-4.6,1.7-11.4,5.6-15.8,7.9l-30.9,17.4c-3.5,1.6-7.1,3.1-10.7,4.5c0.5,1.2,1,2.5,1.8,3.8
	c2,3.7,4.8,5.4,7,8.2c0.1,0.1,0.2,0.3,0.3,0.4c4.2,1,9.1,1.4,14.5,1.2c16.7-0.7,23.5-5.3,35.4-7.5l0.5,0.5
	c-5.2,2.2-17.3,7.3-24.1,8.2c-7.3-0.6-11,1.3-16.7,2.7c-2.2,0.1-4.4,0-6.5-0.2c0.7,1.2,1.5,2.5,2.5,3.7c4.6,5.8,10.4,10.6,12.4,18.7
	c10.5-3.2,9.6-7.8,31.2-16.6c11.6-4.7,20.2-11.2,27.2-19.7c20.4-24.7,6.3-39,7.9-65.4c4.6,6.5,10.2,34.4,10.4,43.7
	c7.8,0.1,23.1-5.4,28.8-7.9c9.9-4.4,11.2-9.7,19-15.3c0,0.4-4.8,6.5-5.8,8.5c-8.4,9.5-27.7,17-42.3,19.8
	c-3.3,20.2-24.7,32.1-29.7,39.7c19.8-0.7,76.4,2.2,90.1,0.3c34.4-4.6,46.9-22.9,56-27.3l-1.8,4.1c-7.1,6-15.1,14.2-23.5,18.1
	c-5.3,2.3-12.3,4.3-18.2,6.9c-11.5,3.5-34,5.5-48.6,5.9c1.8,2.5,17,8.2,21.9,9.5c0.2,0.1,0.4,0.1,0.6,0.2l2.6-0.2
	c-0.3-0.8-1.4-0.4-2.5,0.3c8.4,2.1,22.9,2.9,31.9,2.7c-1.1,0.4-0.2,0.2-3,0.9c-0.3,0.1-2.1,0.2-2.5,0.3c-11.9,0.6-21.5-0.3-29.4-1.8
	c-11.9,5.2-23.2,9.8-27.8,19.9c-1.7,3.7-3.5,30.4-3.6,35.9c7.1-2.6,25.6-9.9,35.6-11.4c2.1-2.1,4.2-4.3,6.3-6.6
	c4.1-4.6,8.3-9.4,12.3-14.3c2.1-2.6,3.7-4.5,6-7.2c1.2-1.4,2.2-2.9,3.1-3.9l4-3.2c-3.2,10.4-14.9,24.3-23.5,34.9
	c12.9,0.4,34.3,3.2,40.6,5.3c-20.6,0-28.7-3.8-43.6-1.6c-1.7,2.1-3.1,4-4.3,5.6l4.5,1.1c1.1,0.1,3.2,0.2,4.4,0.3h0.1
	c0.6-0.7,1.1-1.4,1.6-1.9l4-3.2c-0.5,1.7-1.3,3.4-2.2,5.3c39.6,1.1,35.7-5.5,59.4-11.3l-8.5,4.2c-4.5,3.1-20.7,8.2-28.4,9.6
	c-8,1.5-16.4,1.6-24.9,1.7c-5.6,9.4-14.4,19.7-20.9,27.6c8,1.3,14.6-0.2,26-1.3l6.9-1c-0.7,0-1.6,0-2.5,0.2l-11.1,3.5
	c-8.1,1.1-14.9,1-20.7,0.4c-1.5,1.9-2.9,3.7-4,5.2l4.5,1.1c1.1,0.1,3.2,0.2,4.4,0.3c43.4,1.6,38.6-5.2,63-11.2l-8.5,4.2
	c-4.5,3.1-20.7,8.2-28.4,9.6c-13.1,2.4-27.6,1.3-41.3,1.9l-7.4,5l-2.7,1.2c-0.8,0.4-1.9,0.8-2.4,1.1c-0.2,0.1-1.8,1-2.1,1.3
	l-1.3,1.1c-23.3,8.2-23.5,10.2-53.7,16l-63.1,9.7c-9.5,1.2-18.4,1.7-27.6,2.9c-6.7,5.2-14.1,10.3-20.5,12.9c2.7,2,28.4,5.4,34,5.1
	c12.2-0.7,17.6-7.3,23.2-11.8c-2.3,6.5-13.9,14.8-25.4,16c-16.1,1.7-29.4-5.8-42.7-2C427.1,410.9,423.1,477.4,491.7,532.4
	 M654.8,247.2c-4,0-7.9,0.1-11.8,0.2l-7.4,5l-2.7,1.2c-0.8,0.4-1.9,0.8-2.4,1.1c-0.2,0.1-1.8,1-2.1,1.3l-1.3,1
	c-9.3,3.3-14.9,5.6-20.2,7.5c1.7,0.5,3.4,1,5.3,1.8c5.2,2,10.4,3.1,15,5c1.7,0.7,3.2,1.3,4.7,1.8c2.3-2.2,4.4-4.4,6.6-6.9
	c4.1-4.6,8.3-9.4,12.3-14.3C652.3,250.3,653.4,248.8,654.8,247.2z M601.5,258.8c15.1-4.4,28.5-10.8,40.2-20.2
	c-1.7,0.5-3.5,1-5.3,1.6c-21.2,7-20.4,11.5-30.3,16.4C604.5,257.4,602.9,258.1,601.5,258.8z M477.7,286.4c-17.8,3-32.8,5.1-45.3,6.6
	c-1.3,3.4,1.5,3.9,3.6,8.4c4.3-0.2,8.6,0,13-0.3l0.6-7.3c2.6,0.9,1.7-1.5,1.5,2.2l1.1,4.7c8.6,1,29.2-3.3,35-5.6
	c4.1-1.6,6.2-6.1,7.3-10.8C488.9,285,483.4,285.5,477.7,286.4z M498,284.1c-0.2,2.1-0.6,4.2-1,6.4c1-0.4,2-0.8,2.9-1.2
	c0.2-1.5,0.5-2.9,0.9-4.4c0.1-0.4,0.2-0.8,0.4-1.1C500.2,283.9,499.1,284,498,284.1z M508.9,283l-0.1,0.4l0.5-0.4L508.9,283z
	 M519.9,281.4c-0.2,0.2-0.4,0.5-0.6,0.7c2-0.5,3.7-1,5.1-1.4L519.9,281.4z M581.5,271.5c-0.4,0.3-0.9,0.5-1.4,0.8
	c-15.3,9-20.9,8.9-38.5,12.2c-14.2,2.6-15.6,4.8-23.9,9.9c-3.2,2-7.1,4-10.7,5.7c-0.6,2.5-1.5,4.5-2.7,7.9l4.4,1.5l0,0.1
	c52.6-3.3,91.8-8.2,120.8-34.3c-11.1-2.4-19.2-6.8-29.1-8.6C595.7,268.3,590.1,269.7,581.5,271.5z M577.9,264.1
	c1.9-1.1,3.7-2.2,5.5-3.4c19.3-12.2,23.1-19.3,23.1-34c0-6.3,1.8-9.2,2.7-14.6c-15.8-11.3-17.5-7.6-23.9-25.8
	c-1.9-5.3-0.9-3.9,0-4.7c-0.9,9.3,15.3,25.1,26.2,26.3c6.2-7.8,5.2-9,14.3-13.6c3.9-1.9,10.4-4.6,15.9-6.5
	c-18-4-27.5-11.5-38.1-12.1c-9.7-0.6-20.1-1.1-29.6-0.2c-21.1,2-66.1,27.2-71.2,34.4c7.1-1.7,15.5-3.3,24.1-3.1
	c7.5,0.2,6.4-0.4,13.4,1.2c4.5,1,7.3,0.8,12.7,2.3c0.7,0,1.5,0.1,2.4,0.3c3.9-1.5,8.1-2.8,12.4-4.1c-2.2,2.4-0.5,0.5-2.4,1.6
	l-3.4,1.8c-0.8,0.6-1.7,1.2-2.7,1.7c4.7,1.4,10.1,3.6,12.3,4.3c-5.2-1.2-9.7-2.4-14-3.5c-1.6,0.7-3.3,1.4-4.7,2.1
	c-16.5,8.2-28.9,20.5-28.8,35.9c0,3.4-0.1,5.7-0.4,7.7c7.6-4.2,19-8.7,27.9-11.3c-2.2,2.4-0.5,0.5-2.4,1.6l-3.4,1.8
	c-0.9,0.7-1.9,1.3-3,1.9c-1,1.6-1.4,3-2.8,4.9c-1,4.3-4,8.4-7.4,12.1C548.9,267.8,564.1,266.4,577.9,264.1z M525.5,269.3
	c7.2-6.8,6.2-9.4,11.9-14.6c0,0,1.6-0.9,1.9-1.1l0.9-0.6c-1.2,0.5-2.4,1-3.5,1.6c-5.5,2.7-10.5,5.9-14.7,9.5c-0.6,1.5-1.2,3.3-2,5.6
	C521.8,269.6,523.7,269.5,525.5,269.3z M553.5,211.2c-12.3-2.9-23.2-4.1-42.3,1.4c-13.8,3.9-15.6,2.6-21,11.7
	c-7.8,13.3-16.4,19.9-27.9,33.2l-17.6,18.1c10-1.3,20.9-2.4,32.4-3.2c8.5-0.6,14.9-0.9,19.7-1.4c0.1-0.1,0.1-0.3,0.3-0.5
	c0,0.1,0.1,0.3,0.1,0.4c18.3-1.8,13.7-5.1,20-26.1C521.8,229,535.1,218.5,553.5,211.2z M492.3,307.8c-2.2-0.4-4.2-0.3-5.9,0.6
	c0,0-1.3,1.2-3.3,3.2C486.9,311.2,489.7,310.2,492.3,307.8z M492.2,143.7c-0.8,0.3-1.6,0.6-2.4,1c1,1.6,2.4,3.1,4.2,4.5
	C493.3,147.3,492.7,145.5,492.2,143.7z M498.4,157.4c-7.5-2.1-13.2-5.5-15.8-9.2c-13.1,2.1-32.3,16.5-39.7,21.5
	c-3.5,2.4-7,5.2-10,8.4c1.4,0.1,1.6,1.3,0.8-0.7l-0.3,2c-4.7,6.1-7.5,9.6-8.8,13.8c-0.7,3.3-0.9,6.9-0.2,10.7l2.4,6
	c11.2-3.3,35.5-13.4,49.2-15.3c-12.5,7.2-31.6,10.5-48.1,20.3l1.2,6l1.2,25.9c2.5-0.4,4.8-0.9,7.1-1.5l23.5-18.5
	c11.3-9.6,9-12.8,21.8-22c5.3-9.2,13.8-14.8,29.9-17.2c0.5-0.3,0.9-0.6,1.3-1c0.8-9.7-3.4-14.2-9-20.7
	C502.4,162.9,500.2,160.1,498.4,157.4z M501.6,193.2c-3.7,1.3-7.1,3-9.8,5.6c2-1.2,4.1-2.5,6.6-3.9
	C499.2,194.3,500.3,193.8,501.6,193.2z M407.4,265.7c1.9-3.6,3.3-8.3,3.5-11.8c0.6-8.2,0.8-16.4,0-24.5c-3.1,3.8-5.8,8.2-8,13.3
	C399.3,250.8,400.1,256.7,407.4,265.7z M409.7,220.7c-0.1-0.4-0.1-0.7-0.2-1.1c-2.2-10.8-1.2-9.3-8.1-11.7c-4.8-1.7-8.7-3.5-13-5.1
	c0,5.4,0.2,10.8,0.6,16.2c0.4,6,3.4,14.5,7.2,18.6C403,229.5,405,225.2,409.7,220.7z M388.4,199c6.1,2.4,14.3,5.1,17.8,5.4
	c2.1-14.7,10.3-29.9,0.8-42.8c-2.1,0.8-4.3,1.7-6.7,2.5c-8.3,2.9-7.2,1.1-9.7,14C389.3,184.9,388.6,191.9,388.4,199z M403.5,157.7
	c-2.7-2.5-6.2-4.8-10.8-7.1c0.7,3.1,1.4,6.1,1.8,9.1C396.6,159.7,399.8,158.8,403.5,157.7z M390,139.4c4.4,1.8,9.3,3.4,15.1,4.7
	c2.8-16.4-6.5-18.8-10.4-32.4c-0.3-1.2-0.6-2.3-0.8-3.4C386.6,117.8,387.6,128.5,390,139.4z M346.8,101.6c-0.4-1-0.9-1.9-1.4-2.8
	C345.7,99.9,346.1,100.8,346.8,101.6z M298.6,97.2c0.1,0.5,0.2,1,0.3,1.5c0.6,2.3,1.4,4.2,2.4,6.4c6.3,13.4,18.6,20.9,43.1,18.2
	c1.7-1.8,2.6-4.3,3.1-7.1c-10.3-7.2-30.3-21.2-44.3-23.5C302.2,94.3,300.6,95.8,298.6,97.2z M353.4,120.3l0,1.1
	c1.4,0.7,2.6,1.3,3.9,1.9C356,122.3,354.7,121.3,353.4,120.3z M321.8,198c-1.9,3.6-4.5,7.4-7.8,11.3c-4.7,5.5-8.2,9.3-7.5,17.4
	c2.9,2.3,9.4,4.9,13,7c25.8,14.8,19,16.3,31.3,26.7l22.6,17.8c0.3,0,0.6,0.1,0.9,0.1c-1.9-8.9-5.4-17.6-7.4-27
	c-0.5-2.4-0.9-4.7-1.2-6.9c-10.2-4.1-20.3-6.7-27.7-10.9c7.2,1,18,4.7,27.3,8.1c-0.7-6.7-0.9-13-1.4-20.6
	c-10.4-5.2-20.4-4.2-40.1-21.1C323.2,199.2,322.5,198.6,321.8,198z M339.6,275.1c-5-5.3-9.3-10-13.3-16.9c-4.5-7.6-6.1-6.5-17.6-9.8
	c-8.6-2.5-15.2-3.3-21.1-3.2c0.7,7.2,2.2,19.9,10.3,23.1C304.8,271.2,329.3,276.3,339.6,275.1z M287.4,243.9c2.6-0.4,3.2-0.2,8-0.3
	c7.2-0.1,14.3,1.2,20.2,2.6c-4.3-6-41.9-27.1-59.6-28.8c-7.1-0.7-14.9-0.4-22.3,0l1.8,1.3c0.4,0.3,2.3,1.3,2.3,1.3
	c8.2,7.5,4.6,10.5,21.3,23.4c2.4,1.8,4.4,3.5,6.2,5c3.1-1.1,6.3-2,8.3-2.1c4.5-1.2,6.9-1,10.6-1.9l0.5-0.1c0.3-1.9,0.7-3.8,1.4-5.7
	c0.2,0.2,0.3,0.5,0.3,0.7l0.5,1.4C287.2,241.5,287.3,242.5,287.4,243.9z M284.7,245.4c-6.3,0.5-11.9,2-18.6,3.7
	c7.5,6.4,11.2,10.5,19.9,13.7C285,256.8,284.1,251.1,284.7,245.4z M232,217.5l-0.7,0c-11.1,0.6-20.8,10.2-44.7,12
	c8.2,5,17.4,9.7,31.7,12.4c29.7,5.5,20.7,5.5,41.2,10.8c-6.9-8.2-21.8-18.4-24.6-30.3C233.4,220.5,232.9,219.1,232,217.5z
	 M184.2,228.1c4.2-0.4,8.2-1,11.2-1.8c4.1-1.1,16.9-5.9,18.3-8c-12.2-0.3-31-2-40.6-4.9c-3.8-1.7-8.3-3.1-12.2-4.6
	c4.1,5.8,10.9,11.4,21.9,18.3C183.3,227.5,183.7,227.8,184.2,228.1z M292.2,283.4c4,1.8,7.5,3.7,9.9,5.4
	c6.3,4.5,12.8,12.3,15.2,20.2c1.3,4.3,0.9,8.8,3.1,13.2c0.6,1.2,1.2,2.2,1.8,3.1c10.7-1.3,22.8-3.4,24.8-4.8
	c-20.1-8-47.9-36.2-48.1-36.3C297,283.1,294.7,283,292.2,283.4z M328.6,330.6c4.7,1.6,11.2,0.8,22.2,1.5c6.3,0.4,11.8,1.4,17.5,1.9
	c-1.1-1.8-3.5-3.5-7.9-4.8C350,326.2,339.7,328.8,328.6,330.6z M357.2,314.5c1.8,0.3,0.7,0,2.9,1l8.7,4.2c0.2-6.6-2.2-8.8-2.5-12.6
	c-2.7-1.6-16.7-16.8-32.6-16.8c-1.9,2.3-4.3,5-2.7,7.7c0.4,0.7,6.8,4.7,8.4,5.6l15.2,8.8c0.2,0.1,0.5,0.3,0.7,0.5
	c0.2,0.2,0.5,0.4,0.7,0.5L357.2,314.5z M252.3,689.5c-4.3,4.1-8.1,8.9-11.8,15c5.9-1.9,11.9-3.7,16.9-6.5
	C255.5,694.9,253.8,692,252.3,689.5z M201.2,696.8c11.2-1.8,23.9-2.7,32.5-6.2c5-2,10.1-4.9,15-8c-6.8-13.8-6.9-22-10-44.5
	l-6.5,16.4c-0.1-7.8-0.2-14.2-0.4-19.4c-2,1-4,2.3-5.9,4.3c-0.1-0.1-0.2-0.2-0.2-0.3c-0.8,7.4-1.6,16.3-2.3,26.2
	c-0.9,12.4-8.9,14-16.1,21.4C204,690,202.6,693.5,201.2,696.8z M256.8,677.4c4.5-2.9,8.8-5.8,12.9-8.1c-1.2-0.5-2.5-1.1-4.3-2.1
	c-5.1-2.7-11.6-7.8-12.2-12.3C252.1,664.1,253.8,671.1,256.8,677.4z M271.3,668.4c26.1-14.3,48.4-21.1,51.2-52.6l-21.2,8.1
	c-8.4,3.5,2.1,0.2-11,4.3c18.9-22,28.3-8.4,39-25.4c-2.8-0.5-5.4-0.9-6.5-1c-20.6-2.4-30.4,3.8-44.5,10.8
	C268.2,623.5,260,628,253,630.2c-0.9,7,0.1,15.5,4.7,23.2c4.5,7.6,8.6,10.5,12.5,12.4L271.3,668.4z M91.8,653.7
	c-3.3,1.6-6.4,3.3-9.3,5.3C85.8,657.4,88.9,655.7,91.8,653.7z M633.4,619c11.5,9.8,25.9,17.6,42.1,23.2
	C659.7,626.7,654.9,625.5,633.4,619z M470.6,572l-3.1-1.2c-0.3,2.4-0.5,5.9-0.8,10.5l5.6,2.8C471.8,579,471.2,574.9,470.6,572z
	 M435.1,564.8c2.1,1.2,4.5,2.4,7.1,3.8C440.1,565.1,437.4,563.4,435.1,564.8z M526.6,621.4c2.7,1.9,5.5,3.6,8.5,5.2l6.9,3.9
	C538.4,626.6,533.5,623.5,526.6,621.4z M504.2,613.8c-5.8-4.9-11.4-10.2-19.5-15.3c0.2,0.9,0.4,1.8,0.6,2.6
	C487.2,608.2,494.7,611.6,504.2,613.8z M473.8,598.4c-1.8-3.3-4.1-5.5-7.4-7.1c-0.1,3.6-0.1,7.6-0.2,12l-5.6-14.2
	c-0.4-0.1-0.7-0.2-1.1-0.3c-2.7,20-3.2,28.4-8.8,40.7c7.4,12,27,15.5,47.8,18.9c-2.1-4.1-3.2-8.7-7.3-12.9
	c-7.2-7.4-15.2-9-16.1-21.4C474.7,608.5,474.2,603.3,473.8,598.4z M445.7,585.6c-1.3-0.3-2.6-0.6-4.1-0.9c0.3,3.3,0.8,7.7,1.5,12.5
	C444.7,593.4,445.5,589.4,445.7,585.6z M444.6,606c0.3,1.8,0.6,3.6,1,5.3c0.1-2.3,0.1-4.8-0.2-7.5C445.2,604.5,445,605.2,444.6,606z
	 M440.7,652.9c6.6,15,24.7,27.6,40.2,32.6c-6,3.4-8.3,4.8-7.6,11.2c0.4,3.7,4.3,8.7,7.6,13.6c-1.2-4.5-3.9-9.1-2.4-14.9
	c2.4-9.5,6-8.3,0.1-20.4C473.3,663.9,459.6,655.2,440.7,652.9z M431.8,642.5c-0.7-8.9-1.4-17.2-2.1-24.9c-2,0.9-3.4,1.4-6.3,3.1
	l-5.6,3.8l0,3.4l-1-2.6l-4.4,3c1.1-2.2,2.3-4,3.4-5.5l-5.8-14.7c-1.1,2.1-2.5,4.3-4.4,6.6c-4.8,36.3-5.7,46.4-28.3,83
	c6.8,3.8,14.9,6.5,23,9.1c1.5-5,3.1-10.4-0.2-14.7l-4.6-3.5c23-5.1,25.3-24.8,31.8-38.1C428.7,647.7,430.3,645.1,431.8,642.5z
	 M429.4,614c-0.6-6.5-1.2-12.4-1.9-17.7l-6-11.2c-1,1.3-1.9,2.5-2.7,3.7c-0.4,8-0.7,18.5-0.9,31.7C421.6,617,425.4,616.2,429.4,614z
	 M407.5,709.2c11.5,3.8,22.3,8.2,29.1,16.1c0.5,0.6,1.1,1.2,1.6,1.8c14.8-12.2,1.8-16.8-7-33c-3.7-6.7-5.3-13.8-9.3-19.5
	C402,688.6,407.4,695.8,407.5,709.2z M441.2,730.2c5.2,5.1,10.1,8.4,14.8,10.7c-0.7-5.2-3-10.5-6.8-16.9
	C445.9,726,443.3,728,441.2,730.2z M462.9,743.7c5.9,2.1,11.5,3.3,16.9,5.8c0.1-1.9-0.2-3.7-1.5-7.1l-15.5-3.7
	C463,740.4,463,742.1,462.9,743.7z M483.7,751.6c1.5,0.9,3,2,4.5,3.3l-3.9-3.9L483.7,751.6z M456.2,745.8l-7.5-2.5
	c1,5.4,2.1,11.2,3.6,16.9C454.7,754.9,456,750.3,456.2,745.8z M445.3,774.2l-0.1-0.1c-0.8,1.2-1.4,2.3-1.9,3.3
	C443.9,776.4,444.6,775.3,445.3,774.2z M437.1,784.7c-0.4-2.7-0.3-5.7,0.5-8.8c3.9-15.2,9.7-13.3,0.2-32.8c-0.8-1.6-1.7-3.2-2.7-4.7
	c-2.5,4.9-4,10.5-5.7,17.7l-8.1-17c6.6-1.9,8.7-3.3,10.4-5.2c-5.9-7.2-14.3-13.4-24.7-18.1c-0.1,0.6-0.2,1.2-0.3,1.7
	c-0.4-0.9-0.8-1.7-1.1-2.4c-10.1-4.3-22-7.2-35.3-8.2c-13.8,40.7,2.1,62.6,21.5,95.6c8.8,15.1,9.8,30.2,30.7,37.3
	c3.8,1.3,6.7,2.1,9,2.7c6.5-19.8-1.4-30.1,4.1-49.8l-7.3-1.6c-0.3-0.1-1.3-0.3-1.9-0.5C430.6,789.6,434.1,787.5,437.1,784.7z
	 M361.7,643.2c2.2-1.5,4.5-3.4,6.9-5.9C366,639.1,363.8,641,361.7,643.2z M379.6,572.9c-5.5-10.1-13.9-11.7-18.2,4.4
	c5.1-0.3,10.2-0.9,14.8-2.6C377.1,574.4,378.2,573.8,379.6,572.9z M360.7,579.9c-1,4.9-1.8,11.1-2,18.9c6.6-2.6,12.9-8.5,20.1-20.8
	C371.9,579,366.1,579.6,360.7,579.9z M346.9,600.4l-1-1.8c-0.5,0.6-0.9,1.1-1.3,1.7C345.4,600.3,346.1,600.4,346.9,600.4z
	 M331.9,598.4c3.8-7,6.9-12.8,9.4-17.6c-3.6,0.2-7.5,0.5-11.9,0.9c4-2,8.5-3,13.2-3.5c15.8-30.9,1-12.1-26.6,18.2
	c25.5-47.8-11.2-13.9-28.9,6c4.2-1.2,8.1-2.7,12.5-3.7C312.6,595.9,323,597,331.9,598.4z"/>
</svg>
